<mxfile host="app.diagrams.net" modified="2023-10-06T21:15:34.976Z" agent="Mozilla/5.0 (Macintosh; Intel Mac OS X 10_15_7) AppleWebKit/537.36 (KHTML, like Gecko) Chrome/116.0.0.0 Safari/537.36" etag="Kqoe64Db8lIkxLx5L_Y-" version="22.0.3" type="device">
  <diagram name="Страница — 1" id="77hq0iW9C2IIqYcn7f7X">
    <mxGraphModel dx="1434" dy="765" grid="1" gridSize="10" guides="1" tooltips="1" connect="1" arrows="1" fold="1" page="1" pageScale="1" pageWidth="827" pageHeight="1169" math="0" shadow="0">
      <root>
        <mxCell id="0" />
        <mxCell id="1" parent="0" />
        <mxCell id="KCccCifFVfapmeQtQ63I-3" value="" style="edgeStyle=orthogonalEdgeStyle;rounded=0;orthogonalLoop=1;jettySize=auto;html=1;" edge="1" parent="1" source="KCccCifFVfapmeQtQ63I-1" target="KCccCifFVfapmeQtQ63I-2">
          <mxGeometry relative="1" as="geometry" />
        </mxCell>
        <mxCell id="KCccCifFVfapmeQtQ63I-1" value="public int CountEl()" style="strokeWidth=2;html=1;shape=mxgraph.flowchart.terminator;whiteSpace=wrap;" vertex="1" parent="1">
          <mxGeometry x="314" y="270" width="100" height="60" as="geometry" />
        </mxCell>
        <mxCell id="KCccCifFVfapmeQtQ63I-2" value="return _Top + 1;" style="strokeWidth=2;html=1;shape=mxgraph.flowchart.terminator;whiteSpace=wrap;" vertex="1" parent="1">
          <mxGeometry x="314" y="370" width="100" height="60" as="geometry" />
        </mxCell>
      </root>
    </mxGraphModel>
  </diagram>
</mxfile>
